<svg width="20" height="20" viewBox="0 0 20 20" fill="none" xmlns="http://www.w3.org/2000/svg">
<path d="M20 10C20 8.02219 19.4135 6.08879 18.3147 4.4443C17.2159 2.79981 15.6541 1.51809 13.8268 0.761209C11.9996 0.00433089 9.98891 -0.193702 8.0491 0.192151C6.10929 0.578002 4.32746 1.53041 2.92894 2.92893C1.53041 4.32746 0.578004 6.10929 0.192153 8.0491C-0.1937 9.98891 0.00433229 11.9996 0.76121 13.8268C1.51809 15.6541 2.79981 17.2159 4.4443 18.3147C6.08879 19.4135 8.02219 20 10 20C12.6513 19.9971 15.1932 18.9426 17.0679 17.0679C18.9426 15.1932 19.9971 12.6513 20 10ZM6.66667 10C6.66604 9.38999 6.88899 8.80091 7.29334 8.34417C7.53584 8.07167 7.77167 7.81333 7.94084 7.64417L10.2942 5.25C10.3695 5.16678 10.4609 5.09964 10.5629 5.05261C10.6648 5.00559 10.7752 4.97965 10.8874 4.97635C10.9996 4.97305 11.1114 4.99246 11.2159 5.03341C11.3204 5.07436 11.4156 5.13602 11.4957 5.21467C11.5758 5.29332 11.6392 5.38735 11.6821 5.49111C11.725 5.59487 11.7464 5.70622 11.7452 5.81848C11.744 5.93075 11.7201 6.0416 11.6749 6.14439C11.6298 6.24719 11.5643 6.3398 11.4825 6.41667L9.125 8.81667C8.96917 8.97333 8.7575 9.20667 8.54167 9.44917C8.40739 9.6014 8.33329 9.79742 8.33329 10.0004C8.33329 10.2034 8.40739 10.3994 8.54167 10.5517C8.75667 10.7933 8.96834 11.0267 9.11917 11.1783L11.4825 13.5833C11.5643 13.6602 11.6298 13.7528 11.6749 13.8556C11.7201 13.9584 11.744 14.0693 11.7452 14.1815C11.7464 14.2938 11.725 14.4051 11.6821 14.5089C11.6392 14.6127 11.5758 14.7067 11.4957 14.7853C11.4156 14.864 11.3204 14.9256 11.2159 14.9666C11.1114 15.0075 10.9996 15.027 10.8874 15.0237C10.7752 15.0204 10.6648 14.9944 10.5629 14.9474C10.4609 14.9004 10.3695 14.8332 10.2942 14.75L7.93667 12.3508C7.77 12.1842 7.53667 11.9283 7.29584 11.6567C6.89019 11.2002 6.6663 10.6107 6.66667 10Z" fill="white"/>
</svg>
