<svg width="6" height="10" viewBox="0 0 6 10" fill="none" xmlns="http://www.w3.org/2000/svg">
<path d="M0.210606 0.200351C0.0720495 0.332066 0 0.484856 0 0.66399C0 0.848392 0.0720495 1.00118 0.210606 1.13817L4.26755 4.9948L0.193979 8.86724C0.0665072 8.98842 0 9.14121 0 9.32561C0 9.51002 0.0720495 9.66808 0.210606 9.79979C0.349163 9.93151 0.509889 10 0.698326 10C0.892305 10 1.05303 9.93151 1.19159 9.79979L5.84709 5.36361C5.89912 5.31469 5.9389 5.25526 5.96348 5.18974C6.01217 5.06209 6.01217 4.92224 5.96348 4.79459C5.93817 4.73096 5.89843 4.6734 5.84709 4.626L1.17496 0.184545C1.11296 0.124515 1.03868 0.0771863 0.956709 0.0454729C0.874738 0.0137596 0.786805 -0.00166711 0.698326 0.000142651C0.509889 0.000142651 0.349163 0.0686349 0.210606 0.200351Z" fill="white"/>
</svg>
