<svg width="21" height="21" viewBox="0 0 21 21" fill="none" xmlns="http://www.w3.org/2000/svg">
<g clip-path="url(#clip0_1353_9807)">
<path d="M10.5 0C8.4233 0 6.39323 0.615814 4.66652 1.76957C2.9398 2.92332 1.59399 4.5632 0.79927 6.48182C0.0045495 8.40045 -0.203386 10.5116 0.201759 12.5484C0.606904 14.5852 1.60693 16.4562 3.07538 17.9246C4.54383 19.3931 6.41476 20.3931 8.45156 20.7982C10.4884 21.2034 12.5996 20.9955 14.5182 20.2007C16.4368 19.406 18.0767 18.0602 19.2304 16.3335C20.3842 14.6068 21 12.5767 21 10.5C20.997 7.71615 19.8898 5.04718 17.9213 3.0787C15.9528 1.11022 13.2839 0.00301095 10.5 0ZM10.5 19.25C8.76942 19.25 7.07769 18.7368 5.63876 17.7754C4.19983 16.8139 3.07833 15.4473 2.41606 13.8485C1.75379 12.2496 1.58051 10.4903 1.91813 8.79296C2.25575 7.09563 3.08911 5.53653 4.31282 4.31282C5.53653 3.08911 7.09563 2.25575 8.79296 1.91813C10.4903 1.58051 12.2496 1.75379 13.8485 2.41605C15.4473 3.07832 16.8139 4.19983 17.7754 5.63876C18.7368 7.07769 19.25 8.76941 19.25 10.5C19.2475 12.8199 18.3248 15.044 16.6844 16.6844C15.044 18.3248 12.8199 19.2475 10.5 19.25Z" fill="white"/>
<path d="M10.5006 5.25C10.2686 5.25 10.046 5.34219 9.88191 5.50628C9.71781 5.67038 9.62562 5.89294 9.62562 6.125V9.90937L6.676 11.7574C6.47874 11.8806 6.33852 12.0771 6.28617 12.3038C6.23383 12.5304 6.27365 12.7685 6.39687 12.9657C6.5201 13.163 6.71664 13.3032 6.94325 13.3556C7.16987 13.4079 7.40799 13.3681 7.60525 13.2449L10.9653 11.1449C11.0922 11.0653 11.1966 10.9545 11.2685 10.8231C11.3403 10.6916 11.3772 10.5439 11.3756 10.3941V6.125C11.3756 5.89294 11.2834 5.67038 11.1193 5.50628C10.9552 5.34219 10.7327 5.25 10.5006 5.25Z" fill="white"/>
</g>
<defs>
<clipPath id="clip0_1353_9807">
<rect width="21" height="21" fill="white"/>
</clipPath>
</defs>
</svg>
