<svg width="132" height="95" viewBox="0 0 132 95" fill="none" xmlns="http://www.w3.org/2000/svg">
<path d="M0.313257 31V30.6476H0.93977C1.9187 30.6476 2.50605 29.5512 3.09341 28.2198L14.0574 2.84606H17.1116V3.31595C17.1116 4.09909 17.2683 5.11717 17.4641 5.58706L26.7051 28.2198C27.4883 30.0994 27.7232 30.6476 29.0154 30.6476H29.3286V31H21.8496V30.6476H24.8647V30.5693C24.3557 30.3735 23.925 29.3946 23.6509 28.7289L21.4581 23.3644H5.95188L3.83739 28.2198C3.68077 28.5723 3.60245 28.8464 3.60245 29.1205C3.60245 30.0602 4.34644 30.6476 5.52115 30.6476H7.43984V31H0.313257ZM6.22598 22.6595H21.1448L14.5273 6.33104C14.2532 5.70453 14.214 5.19549 14.214 4.76476H13.8616C13.8616 4.9997 13.7441 5.50874 13.3917 6.33104L6.22598 22.6595ZM30.7383 16.8251C30.7383 8.24974 36.1811 2.5328 44.4041 2.5328C47.0276 2.5328 49.5729 3.3551 51.5699 5.03886C51.7657 5.23464 51.9223 5.5479 52.0006 5.822L52.2747 5.74369C52.1964 5.43043 52.1572 5.03886 52.1572 4.60813L52.0789 1.78882L52.4313 1.74966L52.7837 13.0661L52.0789 13.1052L51.9614 9.46361C51.7657 5.93947 47.9674 3.19848 44.0909 3.19848C37.6691 3.19848 34.2233 7.77985 34.2233 16.1986C34.2233 25.5963 37.8257 30.6084 44.5216 30.6084C48.2415 30.6084 51.844 28.5723 53.2145 25.2831L53.8801 25.518C52.3139 29.4337 48.5548 31.3133 44.4433 31.3133C36.2203 31.3133 30.7383 25.518 30.7383 16.8251ZM58.4851 31V30.6476H61.461C63.3405 30.6476 63.5363 30.4518 63.5363 28.5723V3.55089H61.1869C57.4278 3.55089 56.0965 4.29487 55.9007 8.05395L55.7441 9.69855L55.0784 9.62024L55.6658 0.535794L56.0573 0.574953L55.9007 2.84606H74.1479L73.9521 0.61411L74.3828 0.574953L74.9702 9.62024L74.2654 9.69855L74.1479 8.05395C73.8738 4.29487 72.6208 3.55089 68.8617 3.55089H66.5906V28.5723C66.5906 30.4518 66.7864 30.6476 68.6659 30.6476H71.5635V31H58.4851ZM82.1001 3.59005V3.78583C82.57 4.41235 82.7658 5.31296 82.7658 6.21357V19.3312H84.9586C89.8924 19.3312 92.5551 16.5902 92.5551 11.4606C92.5551 6.3702 89.8924 3.59005 84.9586 3.59005H82.1001ZM76.2657 31V30.6476H77.6362C79.5158 30.6476 79.7116 30.4518 79.7116 28.5723V5.2738C79.7116 3.39426 79.5158 3.19848 77.6362 3.19848H76.2657V2.84606H86.1333C92.0069 2.84606 95.9617 6.29188 95.9617 11.4606C95.9617 16.6294 92.0069 20.036 86.1333 20.036H82.7658V28.5723C82.7658 30.4518 83.0008 30.6476 84.8803 30.6476H85.8592V31H76.2657ZM112.716 31.3133C103.984 31.3133 98.1888 25.5572 98.1888 16.9035C98.1888 8.2889 103.984 2.5328 112.716 2.5328C121.37 2.5328 127.165 8.2889 127.165 16.9035C127.165 25.5572 121.37 31.3133 112.716 31.3133ZM112.834 30.6084C119.921 30.6084 123.758 26.1054 123.758 17.6474C123.758 8.2889 119.804 3.23763 112.559 3.23763C105.433 3.23763 101.595 7.77985 101.595 16.1986C101.595 25.5963 105.511 30.6084 112.834 30.6084ZM0.918 69V68.541H2.703C5.151 68.541 5.406 68.286 5.406 65.838V35.493C5.406 33.045 5.151 32.79 2.703 32.79H0.918V32.331H20.094C20.91 32.331 21.114 32.433 21.471 32.79H21.522L21.318 29.322L21.777 29.271L22.746 44.214H21.828L21.624 40.644C21.318 35.136 17.289 33.249 12.393 33.249H8.262V33.3C8.874 33.912 9.384 34.83 9.384 35.952V65.838C9.384 68.286 9.69 68.541 12.138 68.541H15.453V69H0.918ZM32.2738 33.3V33.555C32.8858 34.371 33.1408 35.544 33.1408 36.717V53.802H35.9968C42.4228 53.802 45.8908 50.232 45.8908 43.551C45.8908 36.921 42.4228 33.3 35.9968 33.3H32.2738ZM24.6748 69V68.541H26.4598C28.9078 68.541 29.1628 68.286 29.1628 65.838V35.493C29.1628 33.045 28.9078 32.79 26.4598 32.79H24.6748V32.331H37.5268C45.1768 32.331 50.3278 36.819 50.3278 43.551C50.3278 50.283 45.1768 54.72 37.5268 54.72H33.1408V65.838C33.1408 68.286 33.4468 68.541 35.8948 68.541H37.1698V69H24.6748ZM46.9256 69V68.541H47.7416C49.0166 68.541 49.7816 67.113 50.5466 65.379L64.8266 32.331H68.8046V32.943C68.8046 33.963 69.0086 35.289 69.2636 35.901L81.2996 65.379C82.3196 67.827 82.6256 68.541 84.3086 68.541H84.7166V69H74.9756V68.541H78.9026V68.439C78.2396 68.184 77.6786 66.909 77.3216 66.042L74.4656 59.055H54.2696L51.5156 65.379C51.3116 65.838 51.2096 66.195 51.2096 66.552C51.2096 67.776 52.1786 68.541 53.7086 68.541H56.2076V69H46.9256ZM54.6266 58.137H74.0576L65.4386 36.87C65.0816 36.054 65.0306 35.391 65.0306 34.83H64.5716C64.5716 35.136 64.4186 35.799 63.9596 36.87L54.6266 58.137ZM85.625 69V68.541H86.441C89.042 68.541 89.45 67.776 89.603 64.92L90.98 35.493C90.98 35.136 90.98 34.779 90.98 34.422C90.98 33.3 90.674 32.79 88.481 32.79H86.441V32.331H93.938L107.147 61.554C107.606 62.574 107.912 63.441 107.912 63.747H108.167C108.167 63.441 108.524 62.319 108.881 61.554L122.09 32.331H129.74V32.79H128.006C125.507 32.79 125.15 33.555 125.15 35.034C125.15 35.442 125.15 35.901 125.201 36.411L126.374 64.92C126.476 67.827 126.833 68.541 129.638 68.541H130.76V69H117.449V68.541H119.285C122.039 68.541 122.396 67.827 122.396 66.603C122.396 66.348 122.396 66.042 122.396 65.685L121.376 38.808C121.325 37.89 121.325 37.125 121.325 36.564H121.019C121.019 36.717 120.662 37.584 120.203 38.655L106.484 69.204L106.331 69.561H106.229L106.076 69.204L92.561 39.216C92.102 38.196 92 37.227 92 37.074H91.796C91.796 37.533 91.796 37.89 91.745 38.808L90.47 65.583C90.419 66.042 90.368 66.45 90.368 66.756C90.368 67.98 90.827 68.541 93.632 68.541H95.468V69H85.625Z" fill="url(#paint0_linear_1353_9136)"/>
<path d="M12.864 93.256C5.728 93.256 0.992 88.552 0.992 81.48C0.992 74.44 5.728 69.736 12.864 69.736C19.936 69.736 24.672 74.44 24.672 81.48C24.672 88.552 19.936 93.256 12.864 93.256ZM12.96 92.68C18.752 92.68 21.888 89 21.888 82.088C21.888 74.44 18.656 70.312 12.736 70.312C6.912 70.312 3.776 74.024 3.776 80.904C3.776 88.584 6.976 92.68 12.96 92.68ZM26.2323 93V92.712H27.3523C28.8883 92.712 29.0483 92.264 29.0483 90.728V72.264C29.0483 70.728 28.8883 70.28 27.3523 70.28H26.2323V69.992H34.1042V70.28H33.2723C31.7363 70.28 31.5443 70.728 31.5443 72.264V80.616H40.3123V72.264C40.3123 70.728 40.1203 70.28 38.5843 70.28H37.7523V69.992H45.6562V70.28H44.5043C42.9683 70.28 42.8083 70.728 42.8083 72.264V90.728C42.8083 92.264 42.9683 92.712 44.5043 92.712H45.6562V93H37.7523V92.712H38.6163C40.1523 92.712 40.3123 92.264 40.3123 90.728V81.192H31.5443V90.728C31.5443 92.264 31.7363 92.712 33.2723 92.712H34.1042V93H26.2323ZM49.3235 69.992H52.0755H60.8435H66.1875V70.28H65.0355C63.4995 70.28 63.3395 70.728 63.3395 72.264V90.728C63.3395 92.264 63.4995 92.712 65.0355 92.712H66.1875V93H58.2835V92.712H59.1475C60.6835 92.712 60.8435 92.264 60.8435 90.728V70.568H53.3555V78.376C53.3555 86.92 50.8915 92.392 48.7475 94.184L46.8915 92.04C49.2275 89.992 52.4915 85.512 52.5235 79.144V72.648C52.5235 70.408 52.2675 70.28 50.0275 70.28H49.3235V69.992ZM66.9748 93V92.712H67.4868C68.2868 92.712 68.7668 91.816 69.2468 90.728L78.2068 69.992H80.7028V70.376C80.7028 71.016 80.8308 71.848 80.9908 72.232L88.5428 90.728C89.1828 92.264 89.3748 92.712 90.4308 92.712H90.6868V93H84.5748V92.712H87.0388V92.648C86.6228 92.488 86.2708 91.688 86.0468 91.144L84.2548 86.76H71.5828L69.8548 90.728C69.7268 91.016 69.6628 91.24 69.6628 91.464C69.6628 92.232 70.2708 92.712 71.2308 92.712H72.7988V93H66.9748ZM71.8068 86.184H83.9988L78.5908 72.84C78.3668 72.328 78.3348 71.912 78.3348 71.56H78.0468C78.0468 71.752 77.9508 72.168 77.6628 72.84L71.8068 86.184ZM91.5448 93V92.712H92.6648C94.2008 92.712 94.3608 92.264 94.3608 90.728V72.264C94.3608 70.728 94.2008 70.28 92.6648 70.28H91.5448V69.992H99.4167V70.28H98.5848C97.0488 70.28 96.8568 70.728 96.8568 72.264V90.824L105.945 69.992H110.969V70.28H109.817C108.281 70.28 108.121 70.728 108.121 72.264V90.728C108.121 92.264 108.281 92.712 109.817 92.712H110.969V93H103.065V92.712H103.929C105.465 92.712 105.625 92.264 105.625 90.728V72.168L96.5368 93H91.5448ZM97.3048 64.232L98.4568 64.136C98.4568 65.896 99.8968 67.336 101.721 67.336C103.513 67.336 104.985 65.896 104.985 64.136L106.137 64.232C106.137 66.312 104.153 67.912 101.721 67.912C99.2568 67.912 97.3048 66.312 97.3048 64.232ZM112.076 93V92.712H113.196C114.732 92.712 114.892 92.264 114.892 90.728V72.264C114.892 70.728 114.732 70.28 113.196 70.28H112.076V69.992H119.948V70.28H119.116C117.58 70.28 117.388 70.728 117.388 72.264V80.616H126.156V72.264C126.156 70.728 125.964 70.28 124.428 70.28H123.596V69.992H131.5V70.28H130.348C128.812 70.28 128.652 70.728 128.652 72.264V90.728C128.652 92.264 128.812 92.712 130.348 92.712H131.5V93H123.596V92.712H124.46C125.996 92.712 126.156 92.264 126.156 90.728V81.192H117.388V90.728C117.388 92.264 117.58 92.712 119.116 92.712H119.948V93H112.076Z" fill="white"/>
<defs>
<linearGradient id="paint0_linear_1353_9136" x1="0" y1="48.5" x2="133" y2="48.5" gradientUnits="userSpaceOnUse">
<stop stop-color="#5846FB"/>
<stop offset="1" stop-color="#CE66FF"/>
</linearGradient>
</defs>
</svg>
