<svg width="21" height="21" viewBox="0 0 21 21" fill="none" xmlns="http://www.w3.org/2000/svg">
<path d="M20.125 10.4999C19.6411 10.4999 19.25 10.891 19.25 11.3749V13.9999H13.9247L8.75 8.82515V1.7499H9.625C10.108 1.7499 10.5 1.35877 10.5 0.874898C10.5 0.391023 10.108 -0.000101563 9.625 -0.000101563H4.375C1.96263 -0.000101563 0 1.96252 0 4.3749V16.6249C0 19.0373 1.96263 20.9999 4.375 20.9999H16.625C19.0374 20.9999 21 19.0373 21 16.6249V11.3749C21 10.891 20.6089 10.4999 20.125 10.4999ZM4.375 1.7499H7V8.6624L1.75 11.4615V4.3749C1.75 2.92765 2.92775 1.7499 4.375 1.7499ZM1.75 16.6249V13.446L7.71488 10.2645L12.4066 14.9563L9.1875 19.249H4.375C2.92775 19.249 1.75 18.0721 1.75 16.6249ZM16.625 19.2499H11.375L14 15.7499H19.25V16.6249C19.25 18.0721 18.0723 19.2499 16.625 19.2499ZM14.3946 9.79027C14.8881 10.2741 15.5382 10.5156 16.1875 10.5148C16.8368 10.5148 17.486 10.2741 17.9804 9.79027L19.5904 8.2144C20.4995 7.30615 21 6.09777 21 4.81152C21 3.52527 20.4995 2.3169 19.5904 1.40865C18.6812 0.499523 17.4729 -0.000976562 16.1875 -0.000976562C14.9021 -0.000976562 13.6929 0.499523 12.7846 1.40865C11.8755 2.3169 11.375 3.52527 11.375 4.81152C11.375 6.09777 11.8755 7.30615 12.7916 8.22052L14.3946 9.79027ZM14.0219 2.64677C14.6002 2.0684 15.3685 1.7499 16.1875 1.7499C17.0065 1.7499 17.7739 2.0684 18.3531 2.64677C18.9324 3.22515 19.25 3.99427 19.25 4.8124C19.25 5.63052 18.9315 6.39877 18.3593 6.97102L16.7563 8.5399C16.4421 8.84615 15.9329 8.8479 15.6179 8.5399L14.0219 6.97802C13.4435 6.39965 13.125 5.63052 13.125 4.8124C13.125 3.99427 13.4435 3.22602 14.0219 2.64677ZM14.8741 4.80715C14.8741 4.08265 15.4621 3.49465 16.1866 3.49465C16.9111 3.49465 17.4991 4.08265 17.4991 4.80715C17.4991 5.53165 16.9111 6.11965 16.1866 6.11965C15.4621 6.11965 14.8741 5.53165 14.8741 4.80715Z" fill="white"/>
</svg>
