<svg width="8" height="14" viewBox="0 0 8 14" fill="none" xmlns="http://www.w3.org/2000/svg">
<path d="M7.71919 13.7195C7.90393 13.5351 8 13.3212 8 13.0704C8 12.8123 7.90393 12.5983 7.71919 12.4066L2.30994 7.00728L7.74136 1.58586C7.91132 1.41621 8 1.2023 8 0.944139C8 0.685976 7.90394 0.464693 7.71919 0.280291C7.53445 0.0958891 7.32015 -5.94345e-08 7.0689 -8.13995e-08C6.81026 -1.0401e-07 6.59596 0.095889 6.41122 0.28029L0.203877 6.49095C0.13451 6.55944 0.0814716 6.64263 0.0486929 6.73436C-0.0162319 6.91307 -0.0162319 7.10886 0.0486928 7.28757C0.0824448 7.37666 0.135426 7.45724 0.203877 7.5236L6.43339 13.7416C6.51606 13.8257 6.61509 13.8919 6.72439 13.9363C6.83368 13.9807 6.95093 14.0023 7.0689 13.9998C7.32015 13.9998 7.53445 13.9039 7.71919 13.7195Z" fill="white"/>
</svg>
