<svg width="8" height="14" viewBox="0 0 8 14" fill="none" xmlns="http://www.w3.org/2000/svg">
<path d="M0.280808 0.280491C0.0960661 0.464893 0 0.678799 0 0.929586C0 1.18775 0.0960661 1.40166 0.280808 1.59343L5.69006 6.99272L0.258639 12.4141C0.0886762 12.5838 0 12.7977 0 13.0559C0 13.314 0.0960661 13.5353 0.280808 13.7197C0.465551 13.9041 0.679852 14 0.931101 14C1.18974 14 1.40404 13.9041 1.58878 13.7197L7.79612 7.50905C7.86549 7.44056 7.91853 7.35737 7.95131 7.26564C8.01623 7.08693 8.01623 6.89114 7.95131 6.71243C7.91755 6.62334 7.86457 6.54276 7.79612 6.4764L1.56661 0.258362C1.48394 0.174321 1.38491 0.108061 1.27561 0.0636621C1.16632 0.0192634 1.04907 -0.00233395 0.931101 0.000199712C0.679852 0.000199712 0.465551 0.0960888 0.280808 0.280491Z" fill="white"/>
</svg>
