<svg width="80" height="80" viewBox="0 0 80 80" fill="none" xmlns="http://www.w3.org/2000/svg">
<path d="M53.3333 66.666L66.6667 66.666C70.2029 66.666 73.5943 65.2613 76.0948 62.7608C78.5952 60.2603 80 56.8689 80 53.3327L80 39.9994C80 38.2312 79.2976 36.5356 78.0474 35.2853C76.7971 34.0351 75.1014 33.3327 73.3333 33.3327L53.6333 33.3327C54.4242 28.6775 56.8351 24.4518 60.4399 21.402C64.0447 18.3522 68.6115 16.6748 73.3333 16.666C74.2174 16.666 75.0652 16.3148 75.6904 15.6897C76.3155 15.0646 76.6667 14.2167 76.6667 13.3327C76.6667 12.4486 76.3155 11.6008 75.6904 10.9757C75.0652 10.3505 74.2174 9.99935 73.3333 9.99935C66.2633 10.0073 59.4852 12.8194 54.4859 17.8186C49.4867 22.8179 46.6746 29.596 46.6667 36.666L46.6667 59.9993C46.6667 61.7675 47.369 63.4631 48.6193 64.7134C49.8695 65.9636 51.5652 66.666 53.3333 66.666Z" fill="#514D74"/>
<path d="M6.66731 66.666L20.0006 66.666C23.5369 66.666 26.9283 65.2613 29.4287 62.7608C31.9292 60.2603 33.334 56.8689 33.334 53.3327L33.334 39.9994C33.334 38.2312 32.6316 36.5356 31.3814 35.2853C30.1311 34.0351 28.4354 33.3327 26.6673 33.3327L6.96732 33.3327C7.75821 28.6775 10.1691 24.4518 13.7739 21.402C17.3787 18.3522 21.9455 16.6748 26.6673 16.666C27.5514 16.666 28.3992 16.3148 29.0243 15.6897C29.6495 15.0646 30.0007 14.2167 30.0007 13.3327C30.0007 12.4486 29.6495 11.6008 29.0243 10.9757C28.3992 10.3505 27.5514 9.99935 26.6673 9.99935C19.5973 10.0073 12.8192 12.8194 7.81991 17.8186C2.82066 22.8179 0.00859012 29.596 0.000647307 36.666L0.000645267 59.9993C0.000645112 61.7675 0.703026 63.4631 1.95327 64.7134C3.20351 65.9636 4.8992 66.666 6.66731 66.666Z" fill="#514D74"/>
</svg>
