<svg width="80" height="80" viewBox="0 0 80 80" fill="none" xmlns="http://www.w3.org/2000/svg">
<path d="M26.6667 13.334H13.3333C9.79711 13.334 6.40573 14.7387 3.90524 17.2392C1.40476 19.7397 0 23.1311 0 26.6673L0 40.0007C0 41.7688 0.702379 43.4645 1.95262 44.7147C3.20286 45.9649 4.89856 46.6673 6.66667 46.6673H26.3667C25.5758 51.3225 23.1649 55.5482 19.5601 58.598C15.9553 61.6478 11.3885 63.3252 6.66667 63.334C5.78261 63.334 4.93477 63.6852 4.30964 64.3103C3.68452 64.9354 3.33333 65.7833 3.33333 66.6673C3.33333 67.5514 3.68452 68.3992 4.30964 69.0243C4.93477 69.6495 5.78261 70.0007 6.66667 70.0007C13.7367 69.9927 20.5148 67.1806 25.5141 62.1814C30.5133 57.1821 33.3254 50.404 33.3333 43.334V20.0007C33.3333 18.2325 32.631 16.5368 31.3807 15.2866C30.1305 14.0364 28.4348 13.334 26.6667 13.334Z" fill="#514D74"/>
<path d="M73.3327 13.334H59.9993C56.4631 13.334 53.0717 14.7387 50.5713 17.2392C48.0708 19.7397 46.666 23.1311 46.666 26.6673V40.0007C46.666 41.7688 47.3684 43.4645 48.6186 44.7147C49.8689 45.9649 51.5646 46.6673 53.3327 46.6673H73.0327C72.2418 51.3225 69.8309 55.5482 66.2261 58.598C62.6213 61.6478 58.0545 63.3252 53.3327 63.334C52.4486 63.334 51.6008 63.6852 50.9757 64.3103C50.3505 64.9354 49.9993 65.7833 49.9993 66.6673C49.9993 67.5514 50.3505 68.3992 50.9757 69.0243C51.6008 69.6495 52.4486 70.0007 53.3327 70.0007C60.4027 69.9927 67.1808 67.1806 72.1801 62.1814C77.1793 57.1821 79.9914 50.404 79.9994 43.334V20.0007C79.9994 18.2325 79.297 16.5368 78.0467 15.2866C76.7965 14.0364 75.1008 13.334 73.3327 13.334Z" fill="#514D74"/>
</svg>
