<svg width="79" height="79" viewBox="0 0 79 79" fill="none" xmlns="http://www.w3.org/2000/svg">
<path d="M24.7761 39.364C24.7761 38.4755 24.0549 37.7539 23.167 37.7539H1.60909C0.721186 37.7539 0 38.4755 0 39.364C0 40.2524 0.721186 40.9741 1.60909 40.9741H23.167C24.0549 40.9741 24.7761 40.2524 24.7761 39.364Z" fill="#514D74"/>
<path d="M77.0615 37.7539H55.5036C54.6157 37.7539 53.8945 38.4755 53.8945 39.364C53.8945 40.2524 54.6157 40.9741 55.5036 40.9741H77.0615C77.9494 40.9741 78.6706 40.2524 78.6706 39.364C78.6706 38.4755 77.9494 37.7539 77.0615 37.7539Z" fill="#514D74"/>
<path d="M39.3354 0C38.4475 0 37.7263 0.721639 37.7263 1.6101V23.1814C37.7263 24.0698 38.4475 24.7915 39.3354 24.7915C40.2233 24.7915 40.9445 24.0698 40.9445 23.1814V1.6101C40.9445 0.721639 40.2233 0 39.3354 0Z" fill="#514D74"/>
<path d="M39.3356 53.9277C38.4477 53.9277 37.7266 54.6494 37.7266 55.5378V77.1091C37.7266 77.9976 38.4477 78.7192 39.3356 78.7192C40.2236 78.7192 40.9447 77.9976 40.9447 77.1091V55.5378C40.9447 54.6494 40.2236 53.9277 39.3356 53.9277Z" fill="#514D74"/>
<path d="M22.8526 20.5944C22.2244 19.9659 21.2047 19.9659 20.5766 20.5944C19.9484 21.2229 19.9484 22.2433 20.5766 22.8718L30.6421 32.9475C30.9562 33.2618 31.3671 33.4208 31.7781 33.4208C32.1891 33.4208 32.6001 33.2618 32.9142 32.9475C33.5423 32.319 33.5423 31.2986 32.9142 30.6701L22.8487 20.5944H22.8526Z" fill="#514D74"/>
<path d="M48.0244 45.78C47.3963 45.1515 46.3766 45.1515 45.7484 45.78C45.1203 46.4085 45.1203 47.4289 45.7484 48.0574L55.814 58.1292C56.128 58.4434 56.539 58.6025 56.95 58.6025C57.361 58.6025 57.772 58.4434 58.0861 58.1292C58.7142 57.5006 58.7142 56.4803 58.0861 55.8518L48.0206 45.78H48.0244Z" fill="#514D74"/>
<path d="M46.8884 33.4169C47.2994 33.4169 47.7104 33.2579 48.0244 32.9436L58.09 22.8679C58.7181 22.2394 58.7181 21.219 58.09 20.5905C57.4618 19.962 56.4421 19.962 55.814 20.5905L45.7484 30.6662C45.1203 31.2947 45.1203 32.3151 45.7484 32.9436C46.0625 33.2579 46.4735 33.4169 46.8845 33.4169H46.8884Z" fill="#514D74"/>
<path d="M30.646 45.78L20.5805 55.8518C19.9523 56.4803 19.9523 57.5006 20.5805 58.1292C20.8945 58.4434 21.3055 58.6025 21.7165 58.6025C22.1275 58.6025 22.5385 58.4434 22.8526 58.1292L32.9181 48.0574C33.5462 47.4289 33.5462 46.4085 32.9181 45.78C32.29 45.1515 31.2702 45.1515 30.6421 45.78H30.646Z" fill="#514D74"/>
</svg>
