<svg width="23" height="16" viewBox="0 0 23 16" fill="none" xmlns="http://www.w3.org/2000/svg">
<rect x="0.5" width="21.75" height="2.25" rx="1.125" fill="white"/>
<path d="M0.5 7.875C0.5 7.25368 1.00368 6.75 1.625 6.75H21.125C21.7463 6.75 22.25 7.25368 22.25 7.875C22.25 8.49632 21.7463 9 21.125 9H1.625C1.00368 9 0.5 8.49632 0.5 7.875Z" fill="white"/>
<path d="M0.5 14.625C0.5 14.0037 1.00368 13.5 1.625 13.5H21.125C21.7463 13.5 22.25 14.0037 22.25 14.625C22.25 15.2463 21.7463 15.75 21.125 15.75H1.625C1.00368 15.75 0.5 15.2463 0.5 14.625Z" fill="white"/>
</svg>
